<svg width="60" height="60" viewBox="0 0 60 60" fill="none" xmlns="http://www.w3.org/2000/svg">
<circle cx="30" cy="30" r="30" fill="#CC584E"/>
<path d="M40.625 26.25H38.75V23.75C38.75 18.9252 34.8248 15 30 15C25.1752 15 21.25 18.9252 21.25 23.75V24.375C21.25 24.7205 21.5296 25 21.875 25H24.375C24.7205 25 25 24.7205 25 24.375V23.75C25 20.993 27.243 18.75 30 18.75C32.757 18.75 35 20.993 35 23.75V26.25H19.375C19.0296 26.25 18.75 26.5296 18.75 26.875V42.5C18.75 43.8788 19.8712 45 21.25 45H38.75C40.1288 45 41.25 43.8788 41.25 42.5V26.875C41.25 26.5296 40.9704 26.25 40.625 26.25ZM31.8714 39.306C31.8909 39.4824 31.8342 39.6594 31.7157 39.7919C31.5973 39.9243 31.4276 40 31.25 40H28.75C28.5724 40 28.4027 39.9243 28.2843 39.7919C28.1659 39.6595 28.1091 39.4825 28.1287 39.306L28.523 35.7605C27.8827 35.2948 27.5 34.5581 27.5 33.75C27.5 32.3712 28.6212 31.25 30.0001 31.25C31.3789 31.25 32.5001 32.3712 32.5001 33.75C32.5001 34.5581 32.1174 35.2948 31.4771 35.7605L31.8714 39.306Z" fill="white"/>
</svg>
