<svg width="192" height="100" viewBox="0 0 192 100" fill="none" xmlns="http://www.w3.org/2000/svg">
<g clip-path="url(#clip0_101_395)">
<path d="M154.603 18.9763C153.973 18.9515 153.35 18.8399 152.75 18.6446L153.442 20.6398C153.503 20.8411 153.61 21.0257 153.753 21.1794C153.897 21.3332 154.073 21.452 154.27 21.5268C154.776 21.6752 155.298 21.7616 155.825 21.784C157.591 21.8826 159.787 21.5148 162.007 20.7456C164.998 19.7071 167.513 18.1013 168.569 16.5677C168.676 16.3885 168.742 16.1872 168.76 15.9789C168.778 15.7707 168.749 15.561 168.674 15.3658L167.983 13.3682C166.91 15.0364 164.251 16.7936 161.023 17.9138C158.726 18.7023 156.444 19.0821 154.603 18.9763Z" fill="white"/>
<path d="M167.057 10.7023C166.817 9.99554 165.804 9.54121 164.292 9.45708C162.612 9.36092 160.538 9.70949 158.436 10.4403C157.144 10.8787 155.905 11.4609 154.742 12.1758L166.291 12.76C166.978 11.9715 167.249 11.2504 167.057 10.7023Z" fill="white"/>
<path d="M154.603 17.2311C156.283 17.3248 158.357 16.9763 160.459 16.2479C161.751 15.8077 162.99 15.2248 164.153 14.5099L152.602 13.9258C151.918 14.7046 151.642 15.433 151.836 15.9835C152.069 16.6902 153.077 17.1445 154.603 17.2311Z" fill="white"/>
<path d="M138.295 37.5485C142.157 39.111 146.047 39.7119 148.445 39.0845C148.737 38.992 149.005 38.8337 149.227 38.6216C149.449 38.4095 149.62 38.1493 149.726 37.861L150.926 34.8754C148.574 35.7936 144.257 35.2792 139.915 33.522C135.574 31.7648 132.115 29.135 131.059 26.8369L129.859 29.8201C129.735 30.1015 129.676 30.4079 129.689 30.7155C129.701 31.0231 129.784 31.3238 129.931 31.5941C131.227 33.7047 134.443 35.986 138.295 37.5485Z" fill="white"/>
<path d="M132.262 23.8678C131.935 24.6779 132.262 25.7236 133.222 26.8894H149.062C147.434 25.6938 145.66 24.7137 143.782 23.9736C138.3 21.762 133.133 21.7115 132.262 23.8678Z" fill="white"/>
<path d="M135.346 28.8799C136.972 30.0777 138.747 31.0587 140.626 31.7982C146.102 34.0145 151.27 34.065 152.146 31.9087C152.472 31.0962 152.146 30.053 151.186 28.8871L135.346 28.8799Z" fill="white"/>
<path d="M133.133 9.97386C134.683 11.296 136.337 12.2864 137.791 12.7599C138.217 12.9063 138.66 13.0008 139.109 13.0412C139.273 13.0409 139.436 13.0034 139.584 12.9314C139.732 12.8594 139.861 12.7547 139.963 12.6253L141 11.4065C140.524 11.3546 140.054 11.2506 139.601 11.0965C138.05 10.5916 136.301 9.54837 134.676 8.16135C132.458 6.26953 130.906 4.1253 130.471 2.42578L129.434 3.64694C129.322 3.7672 129.239 3.91171 129.192 4.06929C129.144 4.22686 129.134 4.39326 129.161 4.55559C129.526 6.12049 131.05 8.19741 133.133 9.97386Z" fill="white"/>
<path d="M141.341 5.16606C140.685 4.34451 139.95 3.5893 139.147 2.91125C137.678 1.65885 136.114 0.723749 134.736 0.267019C133.536 -0.129616 132.61 -0.0935579 132.221 0.363173C131.926 0.709327 131.918 1.32471 132.192 2.10596L141.341 5.16606Z" fill="white"/>
<path d="M135.826 6.8101C137.292 8.0625 138.859 8.9976 140.234 9.45433C141.434 9.85096 142.361 9.8149 142.75 9.35817C143.045 9.01202 143.054 8.39664 142.778 7.61539L133.63 4.5625C134.287 5.38102 135.023 6.13374 135.826 6.8101Z" fill="white"/>
<path d="M121.003 65.1708C119.691 65.8624 118.621 66.9383 117.936 68.255C117.216 69.6252 116.832 71.3415 116.832 73.3535C116.811 74.6959 117.03 76.0311 117.48 77.2958C117.873 78.3817 118.494 79.3704 119.302 80.1949C120.09 80.9859 121.041 81.5954 122.088 81.9809C123.242 82.399 124.461 82.6058 125.688 82.5915H125.803V64.118H125.698C124.07 64.0799 122.459 64.4414 121.003 65.1708Z" fill="white"/>
<path d="M135.562 65.1686C134.251 64.4715 132.667 64.1182 130.858 64.1182H130.75V82.5917H130.858C132.1 82.6084 133.334 82.4016 134.503 81.9811C135.544 81.5996 136.488 80.9912 137.266 80.1999C138.061 79.368 138.674 78.379 139.066 77.296C139.517 76.0317 139.737 74.6963 139.716 73.3537C139.716 71.3441 139.344 69.6278 138.61 68.2552C137.927 66.9422 136.865 65.8663 135.562 65.1686Z" fill="white"/>
<path d="M17.5225 59.8969V87.0603C17.5237 87.2758 17.5674 87.489 17.6509 87.6876C17.7345 87.8861 17.8564 88.0663 18.0095 88.2176C18.1626 88.369 18.3441 88.4887 18.5434 88.5697C18.7428 88.6508 18.9561 88.6917 19.1713 88.6902H36.8641V85.4185H21.4033V74.8849H35.9713V71.6036H21.4033V61.5459H36.8761V58.2647H19.1713C18.956 58.2634 18.7426 58.3046 18.5432 58.386C18.3439 58.4673 18.1625 58.5872 18.0094 58.7388C17.8562 58.8903 17.7344 59.0706 17.6509 59.2693C17.5674 59.468 17.5237 59.6813 17.5225 59.8969Z" fill="white"/>
<path d="M55.5048 58.1992C51.5496 58.1992 48.412 59.3723 46.092 61.7185C43.772 64.0646 42.6112 67.4244 42.6096 71.7978V88.7617H46.8216V80.43H64.1856V88.7617H68.484V71.7978C68.484 67.4228 67.3232 64.063 65.0016 61.7185C62.68 59.3739 59.5144 58.2008 55.5048 58.1992ZM64.1856 76.6752H46.8216V71.4084C46.8216 68.3282 47.588 65.9973 49.1208 64.4156C50.6536 62.8338 52.7816 62.0422 55.5048 62.0406C58.2248 62.0406 60.352 62.8322 61.8864 64.4156C63.4208 65.9989 64.1872 68.3298 64.1856 71.4084V76.6752Z" fill="white"/>
<path d="M90.8857 74.9065C90.165 74.0607 89.2984 73.3515 88.3272 72.8127C87.9531 72.614 87.5639 72.4452 87.1633 72.3079L96.4513 58.2719H92.0257L83.3041 71.6541H78.2281V58.2646H74.2321V88.6973H78.2281V75.1012H82.8697C84.4169 75.1012 85.7208 75.461 86.7816 76.1805C87.8424 76.9001 88.7737 78.1084 89.5752 79.8055L93.744 88.6997H98.0425L92.9233 78.0771C92.384 76.9364 91.699 75.8705 90.8857 74.9065Z" fill="white"/>
<path d="M165.209 46.9619H26.7936C12.0192 46.9619 0 58.8585 0 73.4811C0 88.1037 12.0192 100 26.7936 100H165.209C179.983 100 192 88.1037 192 73.4811C192 58.8585 179.983 46.9619 165.209 46.9619ZM107.201 96.0004H26.4216C13.8408 96.0004 3.6432 85.9042 3.6432 73.4523C3.6432 61.01 13.8408 50.9138 26.4216 50.9138H107.278C101.942 63.7816 101.921 84.6085 107.201 96.0004ZM142.894 80.3417C141.738 82.3 140.029 83.8717 137.983 84.8585C135.931 85.8754 133.438 86.4066 130.567 86.4331V89.7984H125.986V86.4331C123.142 86.4066 120.662 85.8754 118.613 84.8585C116.563 83.8699 114.848 82.3001 113.681 80.3441C112.526 78.4018 111.941 76.0484 111.941 73.3537C111.941 70.659 112.51 68.2648 113.635 66.3249C114.774 64.3657 116.48 62.7984 118.526 61.8297C120.578 60.8225 123.086 60.3009 125.986 60.2744V57.1638H130.567V60.2696C133.493 60.296 136.008 60.8177 138.048 61.8249C140.085 62.7998 141.782 64.3661 142.918 66.3201C144.041 68.26 144.61 70.6254 144.61 73.3489C144.61 76.0725 144.043 78.3994 142.894 80.3417ZM179.822 80.3417C178.667 82.3 176.958 83.8717 174.912 84.8585C172.86 85.8754 170.366 86.4066 167.494 86.4331V89.7984H162.914V86.4331C160.07 86.4066 157.591 85.8754 155.542 84.8585C153.492 83.8699 151.777 82.3001 150.61 80.3441C149.455 78.4018 148.87 76.0484 148.87 73.3537C148.87 70.659 149.438 68.2648 150.564 66.3249C151.703 64.3663 153.407 62.7992 155.453 61.8297C157.507 60.8225 160.013 60.3009 162.914 60.2744V57.1638H167.494V60.2696C170.422 60.296 172.937 60.8177 174.977 61.8249C177.014 62.7998 178.71 64.3661 179.846 66.3201C180.97 68.26 181.538 70.6254 181.538 73.3489C181.538 76.0725 180.962 78.3994 179.822 80.3417Z" fill="white"/>
<path d="M157.937 65.1706C156.625 65.8622 155.555 66.9382 154.87 68.2548C154.138 69.625 153.766 71.3413 153.766 73.3533C153.744 74.6957 153.964 76.0309 154.414 77.2956C154.806 78.381 155.427 79.3695 156.233 80.1947C157.022 80.9853 157.974 81.5947 159.022 81.9807C160.175 82.3991 161.395 82.6059 162.622 82.5913H162.73V64.1178H162.622C160.998 64.0812 159.389 64.4427 157.937 65.1706Z" fill="white"/>
<path d="M172.49 65.1686C171.18 64.4715 169.596 64.1182 167.786 64.1182H167.678V82.5917H167.786C169.028 82.6084 170.263 82.4016 171.432 81.9811C172.473 81.599 173.416 80.9907 174.194 80.1999C174.99 79.368 175.603 78.379 175.994 77.296C176.446 76.0317 176.666 74.6963 176.645 73.3537C176.645 71.3441 176.273 69.6278 175.538 68.2552C174.856 66.9422 173.794 65.8663 172.49 65.1686Z" fill="white"/>
</g>
<defs>
<clipPath id="clip0_101_395">
<rect width="192" height="100" fill="white"/>
</clipPath>
</defs>
</svg>
