<svg width="202" height="56" viewBox="0 0 202 56" fill="none" xmlns="http://www.w3.org/2000/svg">
<g clip-path="url(#clip0_101_31)">
<path d="M127.305 19.4292C125.925 20.1554 124.799 21.2851 124.078 22.6675C123.321 24.1062 122.917 25.9084 122.917 28.021C122.895 29.4305 123.126 30.8325 123.599 32.1604C124.012 33.3006 124.665 34.3387 125.515 35.2044C126.344 36.035 127.345 36.675 128.447 37.0798C129.66 37.5188 130.943 37.7359 132.234 37.7209H132.355V18.3237H132.244C130.532 18.2837 128.837 18.6633 127.305 19.4292Z" fill="#2E7B6A"/>
<path d="M142.622 19.4267C141.244 18.6948 139.577 18.3237 137.673 18.3237H137.56V37.721H137.673C138.98 37.7385 140.279 37.5214 141.509 37.0799C142.604 36.6792 143.597 36.0404 144.415 35.2095C145.252 34.3361 145.897 33.2976 146.309 32.1605C146.783 30.8329 147.015 29.4308 146.993 28.0211C146.993 25.911 146.602 24.1088 145.829 22.6676C145.111 21.289 143.993 20.1593 142.622 19.4267Z" fill="#2E7B6A"/>
<path d="M18.4351 13.8916V42.4132C18.4364 42.6395 18.4823 42.8633 18.5702 43.0718C18.6582 43.2803 18.7864 43.4694 18.9475 43.6284C19.1086 43.7873 19.2995 43.9129 19.5092 43.9981C19.7189 44.0832 19.9434 44.1262 20.1697 44.1245H38.784V40.6893H22.518V29.629H37.8447V26.1837H22.518V15.6231H38.7967V12.1778H20.1697C19.9433 12.1764 19.7187 12.2197 19.509 12.3051C19.2993 12.3905 19.1084 12.5164 18.9473 12.6755C18.7862 12.8347 18.6581 13.024 18.5702 13.2326C18.4823 13.4413 18.4364 13.6652 18.4351 13.8916Z" fill="#2E7B6A"/>
<path d="M58.3957 12.1094C54.2345 12.1094 50.9335 13.3411 48.4926 15.8046C46.0518 18.268 44.8305 21.7958 44.8289 26.3879V44.2H49.2602V35.4517H67.5286V44.2H72.0509V26.3879C72.0509 21.7941 70.8296 18.2663 68.3871 15.8046C65.9446 13.3428 62.6141 12.1111 58.3957 12.1094ZM67.5286 31.5091H49.2602V25.979C49.2602 22.7448 50.0666 20.2974 51.6792 18.6365C53.2918 16.9757 55.5307 16.1445 58.3957 16.1428C61.2574 16.1428 63.4954 16.974 65.1097 18.6365C66.724 20.299 67.5303 22.7465 67.5286 25.979V31.5091Z" fill="#2E7B6A"/>
<path d="M95.6192 29.6516C94.861 28.7636 93.9493 28.0189 92.9276 27.4532C92.534 27.2445 92.1245 27.0673 91.703 26.9232L101.475 12.1853H96.8186L87.6428 26.2366H82.3024V12.1777H78.0983V44.132H82.3024V29.8561H87.1857C88.8135 29.8561 90.1854 30.2339 91.3015 30.9894C92.4175 31.7449 93.3972 33.0137 94.2406 34.7956L98.6265 44.1346H103.149L97.763 32.9809C97.1956 31.783 96.475 30.6639 95.6192 29.6516Z" fill="#2E7B6A"/>
<path d="M173.813 0.30957H28.1891C12.6452 0.30957 0 12.801 0 28.1548C0 43.5085 12.6452 55.9999 28.1891 55.9999H173.813C189.357 55.9999 202 43.5085 202 28.1548C202 12.801 189.357 0.30957 173.813 0.30957ZM112.784 51.7999H27.7977C14.5617 51.7999 3.83295 41.199 3.83295 28.1245C3.83295 15.0601 14.5617 4.45909 27.7977 4.45909H112.865C107.252 17.9703 107.229 39.8385 112.784 51.7999ZM150.336 35.3584C149.12 37.4146 147.323 39.0648 145.17 40.101C143.011 41.1687 140.387 41.7265 137.368 41.7543V45.2879H132.547V41.7543C129.555 41.7265 126.947 41.1687 124.791 40.101C122.634 39.0629 120.83 37.4147 119.602 35.3609C118.387 33.3215 117.771 30.8504 117.771 28.021C117.771 25.1915 118.369 22.6776 119.554 20.6407C120.752 18.5835 122.546 16.9379 124.7 15.9207C126.859 14.8632 129.497 14.3155 132.547 14.2877V11.0216H137.368V14.2826C140.446 14.3104 143.092 14.8581 145.238 15.9157C147.381 16.9394 149.166 18.584 150.361 20.6356C151.543 22.6725 152.141 25.1562 152.141 28.0159C152.141 30.8757 151.545 33.3189 150.336 35.3584ZM189.188 35.3584C187.972 37.4146 186.175 39.0648 184.022 40.101C181.863 41.1687 179.24 41.7265 176.217 41.7543V45.2879H171.4V41.7543C168.407 41.7265 165.799 41.1687 163.643 40.101C161.486 39.0629 159.682 37.4147 158.454 35.3609C157.239 33.3215 156.623 30.8504 156.623 28.021C156.623 25.1915 157.222 22.6776 158.406 20.6407C159.604 18.5842 161.397 16.9387 163.549 15.9207C165.711 14.8632 168.347 14.3155 171.4 14.2877V11.0216H176.217V14.2826C179.298 14.3104 181.944 14.8581 184.09 15.9157C186.233 16.9394 188.018 18.584 189.213 20.6356C190.395 22.6725 190.994 25.1562 190.994 28.0159C190.994 30.8757 190.388 33.3189 189.188 35.3584Z" fill="#2E7B6A"/>
<path d="M166.163 19.429C164.782 20.1551 163.657 21.2849 162.936 22.6673C162.166 24.106 161.774 25.9082 161.774 28.0208C161.752 29.4303 161.983 30.8323 162.456 32.1602C162.869 33.2998 163.522 34.3377 164.37 35.2042C165.2 36.0343 166.202 36.6742 167.304 37.0796C168.518 37.5188 169.801 37.736 171.091 37.7207H171.205V18.3234H171.091C169.383 18.2851 167.691 18.6646 166.163 19.429Z" fill="#2E7B6A"/>
<path d="M181.474 19.4267C180.096 18.6948 178.429 18.3237 176.525 18.3237H176.412V37.721H176.525C177.832 37.7385 179.131 37.5214 180.361 37.0799C181.456 36.6786 182.448 36.0399 183.267 35.2095C184.104 34.3361 184.749 33.2976 185.161 32.1605C185.636 30.8329 185.867 29.4308 185.845 28.0211C185.845 25.911 185.454 24.1088 184.681 22.6676C183.963 21.289 182.845 20.1593 181.474 19.4267Z" fill="#2E7B6A"/>
</g>
<defs>
<clipPath id="clip0_101_31">
<rect width="202" height="56" fill="white"/>
</clipPath>
</defs>
</svg>
