<svg width="140" height="28" viewBox="0 0 140 28" fill="none" xmlns="http://www.w3.org/2000/svg">
<g clip-path="url(#clip0_101_357)">
<path d="M12.3315 17.633L10.4014 23.0375L7.88712 16.0339L6.70409 19.3441L9.36512 26.7553C9.44468 26.9762 9.58727 27.166 9.77273 27.3003C9.95684 27.4341 10.1784 27.5061 10.4057 27.5059C10.6331 27.5057 10.8545 27.4334 11.0384 27.2992C11.2244 27.1644 11.3659 26.9731 11.445 26.7517L14.0409 19.4862L12.8517 16.1791L12.3315 17.6325V17.633ZM37.518 0.389659C37.3819 0.336878 37.2364 0.312551 37.0906 0.318168C36.9447 0.323785 36.8015 0.359228 36.6698 0.422325C36.3991 0.553099 36.1911 0.786142 36.0912 1.07047L28.2439 23.0443L20.327 0.992177C20.2424 0.753244 20.0814 0.549076 19.8693 0.411437C19.6601 0.276263 19.4107 0.217901 19.1636 0.246255C18.9164 0.274609 18.6866 0.387932 18.5132 0.566992C18.336 0.745881 18.2208 0.981807 18.1862 1.23692L15.6315 8.39973L16.8208 11.7063L19.3082 4.7421L27.2087 26.7413C27.2882 26.9622 27.4308 27.1525 27.6163 27.2868C27.8022 27.4205 28.0223 27.4926 28.2486 27.4931C28.4749 27.4926 28.696 27.42 28.882 27.2852C29.0679 27.1504 29.2095 26.9591 29.2885 26.7377L38.171 1.8747C38.2722 1.58683 38.2604 1.27109 38.138 0.991659C38.0188 0.716566 37.7959 0.500089 37.518 0.389659ZM4.63509 6.97484L2.48756 0.992177C2.46367 0.927122 2.43411 0.864311 2.39922 0.804474L2.36512 0.751066C2.33928 0.71147 2.31098 0.673543 2.2804 0.637511L2.23597 0.588251C2.20088 0.55257 2.16343 0.51931 2.12387 0.488696L2.08667 0.457066C2.03409 0.419001 1.97825 0.385685 1.91981 0.357511L1.87228 0.339881C1.82813 0.320464 1.78274 0.304008 1.73641 0.290622H1.67184L1.53959 0.272474H1.26734C1.2061 0.283854 1.14595 0.300508 1.08756 0.322251H1.06379C0.926199 0.375981 0.800763 0.456917 0.694939 0.560251C0.588001 0.663955 0.502245 0.788918 0.441802 0.927363C0.319339 1.20855 0.309533 1.52629 0.414422 1.81455L3.92165 11.5793L5.10416 8.26907L4.63509 6.97536V6.97484Z" fill="white"/>
<path d="M11.3701 0.992544C11.292 0.773841 11.1499 0.5839 10.9625 0.447581C10.7785 0.3139 10.5573 0.241702 10.3302 0.241211C10.1039 0.241211 9.88278 0.313804 9.6968 0.448618C9.51082 0.583433 9.36927 0.774767 9.29023 0.996174L0.408238 25.8737C0.286553 26.1663 0.285439 26.4954 0.405138 26.7888C0.464548 26.9335 0.551338 27.0642 0.660341 27.1726C0.768828 27.2814 0.89798 27.366 1.04005 27.4209C1.18102 27.4757 1.33194 27.5001 1.48293 27.4923C1.63392 27.4845 1.78157 27.4448 1.91621 27.3758C2.05156 27.3068 2.17245 27.2099 2.2706 27.0901C2.36876 26.9708 2.44263 26.8319 2.48757 26.6815L10.3343 4.70669L18.2477 26.7453C18.2941 26.8941 18.3691 27.031 18.4677 27.1487C18.5669 27.2659 18.6873 27.3613 18.8221 27.4287C19.0251 27.5309 19.2551 27.5662 19.4793 27.5294C19.7034 27.4926 19.9102 27.3857 20.0702 27.2239C20.1787 27.116 20.265 26.9864 20.3244 26.8428C20.4442 26.5519 20.4453 26.2255 20.3275 25.9338L11.3696 0.992544H11.3701Z" fill="white"/>
<path d="M49.9309 12.3702H42.1633L40.6579 16.4816H39.417L45.4391 0.319336H46.6789L52.67 16.4816H51.4301L49.9309 12.3697V12.3702ZM49.5099 11.2144L46.0574 1.81889L42.605 11.2144H49.5099Z" fill="white"/>
<path d="M53.0098 16.7121H51.3102L49.8053 12.6038H42.33L40.8241 16.7115H39.125L45.3165 0.0888672H46.8591L53.0098 16.7115V16.7121ZM51.5995 16.2506H52.364L46.5367 0.552941H45.5986L39.7573 16.2506H40.5219L42.0273 12.1429H50.1003L51.5989 16.2506H51.5995ZM49.843 11.4481H42.2851L46.0604 1.16998L49.8425 11.4481H49.843ZM42.9277 10.9876H49.19L46.0604 2.48131L42.9277 10.9876ZM54.9564 10.7076C54.9412 9.90967 55.0818 9.11648 55.3702 8.37272C55.655 7.63603 56.0836 6.96384 56.6307 6.39561C57.1702 5.8357 57.8187 5.39322 58.5359 5.09568C59.246 4.80171 60.0097 4.66091 60.7775 4.68242C62.9452 4.68242 64.8075 5.83768 65.6026 7.63798L64.6954 8.19124C64.0533 6.73783 62.5479 5.79153 60.7775 5.79153C59.5268 5.79153 58.3277 6.31005 57.4438 7.23198C56.5594 8.15442 56.0624 9.40457 56.0624 10.7092C56.0624 12.0138 56.5594 13.2644 57.4438 14.1869C58.3277 15.1088 59.5268 15.6268 60.7775 15.6268C61.592 15.6467 62.3954 15.4332 63.0934 15.0113C63.8027 14.5818 64.3805 13.9647 64.7636 13.2276L65.6945 13.8052C65.2198 14.7097 64.5063 15.4656 63.6322 15.9903C62.7718 16.5058 61.7828 16.7646 60.7811 16.7364C60.0126 16.7584 59.2482 16.6177 58.5375 16.3237C57.8196 16.0263 57.1705 15.5836 56.6307 15.0232C56.083 14.4547 55.6541 13.7819 55.3691 13.0446C55.0809 12.3001 54.9406 11.5062 54.9564 10.7076Z" fill="white"/>
<path d="M60.7777 16.9671C59.1865 16.9671 57.661 16.3076 56.5358 15.1341C55.4106 13.9607 54.7783 12.3694 54.7783 10.7096C54.7783 9.05037 55.4106 7.45852 56.5358 6.28511C57.661 5.11119 59.1865 4.45215 60.7777 4.45215C63.0342 4.45215 64.9606 5.63593 65.8037 7.54252L65.8884 7.73437L64.5974 8.50696L64.4951 8.27622C63.8768 6.87622 62.4566 6.00822 60.7777 6.00822C59.5858 6.00822 58.4431 6.50185 57.6 7.38074C56.7574 8.26015 56.2837 9.45222 56.2837 10.6956C56.2837 11.9385 56.7574 13.1306 57.6 14.01C58.4431 14.8889 59.5858 15.3825 60.7777 15.3825C61.5505 15.4035 62.3132 15.2028 62.9763 14.8039C63.6499 14.3977 64.199 13.8132 64.5633 13.1145L64.6718 12.9019L65.9804 13.7134L65.8853 13.9084C65.3921 14.8497 64.6508 15.637 63.7425 16.1847C62.8481 16.7223 61.8198 16.9937 60.7777 16.9671ZM60.7777 4.91674C59.3043 4.91674 57.8914 5.52704 56.8494 6.61385C55.8074 7.70067 55.2221 9.1743 55.2221 10.7112C55.2221 12.2481 55.8074 13.7222 56.8494 14.809C57.8914 15.8959 59.3043 16.5061 60.7777 16.5061C61.7029 16.5307 62.6173 16.3018 63.4227 15.844C64.2401 15.3785 64.9207 14.7047 65.3956 13.8907L64.8454 13.5361C64.4264 14.2557 63.8257 14.8516 63.1039 15.2638C62.3929 15.6689 61.5852 15.8718 60.7678 15.8507C59.481 15.8155 58.2587 15.2576 57.3603 14.2957C56.4624 13.3344 55.9598 12.0453 55.9598 10.7024C55.9598 9.35992 56.4624 8.07089 57.3603 7.10904C58.2587 6.14718 59.481 5.58978 60.7678 5.55452C62.5279 5.55452 64.04 6.43341 64.7772 7.86193L65.3042 7.53941C64.5055 5.91956 62.7862 4.91311 60.7777 4.91311V4.91622V4.91674ZM74.149 4.77415V5.88378C72.2463 5.88378 70.4521 7.10644 70.4521 10.0625V16.4813H69.344V4.93644H70.4521V7.1977C71.2064 5.37615 72.6436 4.77363 74.149 4.77363V4.77415Z" fill="white"/>
<path d="M70.6799 16.7115H69.1301V4.70676H70.6799V6.29861C71.4373 5.14646 72.6234 4.54395 74.1562 4.54395H74.3768V6.11402H74.1562C72.4772 6.11402 70.6799 7.15261 70.6799 10.0625V16.7115ZM69.5718 16.2505H70.2517V10.0625C70.2517 6.9395 72.1952 5.74846 73.9485 5.65669V5.00854C72.3754 5.0718 71.2746 5.83765 70.6763 7.28691L70.2517 8.31513V5.16409H69.5718V16.25V16.2505ZM76.1844 10.7071C76.1764 9.51256 76.5104 8.3409 77.1468 7.3315C77.7707 6.3391 78.6758 5.55639 79.7459 5.08372C80.8017 4.61968 81.9744 4.49348 83.1043 4.72232C84.242 4.95621 85.2824 5.53075 86.0882 6.37017C86.9102 7.22579 87.467 8.30265 87.6907 9.46987C87.9185 10.6459 87.807 11.8654 87.3699 12.9756C86.9402 14.0755 86.1974 15.0242 85.2343 15.7035C84.2881 16.3697 83.1612 16.7289 82.0055 16.7328C81.24 16.7442 80.4805 16.5964 79.7748 16.2988C79.0621 15.9978 78.4175 15.555 77.8799 14.9973C77.3347 14.431 76.9058 13.7628 76.6173 13.0305C76.3259 12.2912 76.179 11.5026 76.1844 10.7076V10.7071ZM86.6777 10.7071C86.673 9.74644 86.3936 8.80737 85.8728 8.00143C85.3622 7.20894 84.6276 6.58749 83.763 6.21669C82.9096 5.85255 81.9652 5.76077 81.058 5.9538C80.1444 6.15104 79.3115 6.62099 78.6687 7.30195C78.0131 7.996 77.5721 8.86592 77.3989 9.80639C77.2221 10.7535 77.3183 11.7315 77.6763 12.6256C78.0273 13.508 78.6292 14.2674 79.407 14.8091C80.1713 15.3405 81.0793 15.6246 82.0091 15.6231C82.6285 15.6272 83.242 15.5026 83.811 15.2571C84.3857 15.0083 84.9043 14.6453 85.3355 14.1899C85.7728 13.7283 86.1153 13.1847 86.3434 12.5903C86.5747 11.9902 86.6882 11.3509 86.6777 10.7076V10.7071Z" fill="white"/>
<path d="M82.0086 16.9674C80.8177 16.9606 79.6574 16.5884 78.6832 15.9008C77.6917 15.1997 76.9272 14.2218 76.4845 13.0884C76.0339 11.9404 75.919 10.6871 76.1534 9.47585C76.3827 8.27283 76.9548 7.16241 77.8003 6.27919C78.6291 5.41294 79.6995 4.81862 80.871 4.5743C82.0346 4.33508 83.2434 4.46089 84.3333 4.93467C85.4377 5.41731 86.3736 6.21961 87.0212 7.23897C87.6814 8.27582 88.0316 9.48096 88.0301 10.7115C88.0361 11.535 87.884 12.3521 87.5822 13.1179C87.2844 13.8767 86.8411 14.5694 86.2773 15.1567C85.7216 15.7357 85.0551 16.196 84.3178 16.5101C83.5848 16.8212 82.8 16.9767 82.0086 16.9674ZM82.0086 4.91704C80.9055 4.92341 79.8308 5.26826 78.9286 5.90534C78.0104 6.555 77.3024 7.461 76.8927 8.51089C76.4757 9.57449 76.3694 10.7354 76.5863 11.8574C76.799 12.9717 77.3291 14.0001 78.1124 14.8182C78.8802 15.6205 79.872 16.1709 80.9573 16.397C82.0352 16.6186 83.1548 16.502 84.1644 16.0631C85.1873 15.6158 86.054 14.8726 86.6539 13.9284C87.2655 12.9678 87.5898 11.8514 87.5885 10.7115C87.5943 9.94818 87.4538 9.19088 87.1746 8.48082C86.8983 7.77775 86.4875 7.13583 85.9653 6.59134C85.4502 6.0545 84.8324 5.62768 84.1489 5.33652C83.4721 5.04889 82.7435 4.90467 82.0086 4.91289V4.91652V4.91704ZM82.0086 15.8614C81.0259 15.8692 80.0644 15.5742 79.2541 15.0162C78.4291 14.4472 77.7898 13.6465 77.416 12.7145C77.035 11.7706 76.9312 10.7369 77.1169 9.73563C77.2985 8.74074 77.7644 7.82033 78.458 7.08652C79.1376 6.36668 80.0188 5.87074 80.9852 5.66423C81.9445 5.46179 82.9427 5.56138 83.8436 5.94941C84.7565 6.34462 85.5307 7.00503 86.0665 7.84563C86.6132 8.70068 86.9032 9.69554 86.9019 10.7115C86.9103 11.3849 86.7898 12.0536 86.547 12.6813C86.3067 13.3031 85.9475 13.8715 85.4895 14.3546C85.038 14.8308 84.4954 15.2107 83.8942 15.4715C83.2988 15.729 82.6569 15.8605 82.0086 15.8578V15.8614ZM82.0086 6.02615C81.1142 6.01838 80.2389 6.28623 79.501 6.79356C78.7502 7.31074 78.1679 8.03868 77.8272 8.8863C77.48 9.74516 77.385 10.6858 77.5534 11.5971C77.7183 12.5024 78.1419 13.3401 78.7726 14.0082C79.3908 14.6636 80.1926 15.1152 81.072 15.3035C81.9451 15.488 82.8536 15.3976 83.6736 15.0447C84.5043 14.6851 85.2088 14.0843 85.6966 13.3196C86.1942 12.5415 86.4582 11.6361 86.4571 10.7115C86.4645 10.0991 86.3551 9.49104 86.1347 8.92C85.9166 8.35425 85.5902 7.83688 85.1738 7.39711C84.7634 6.96345 84.27 6.61743 83.7232 6.37978C83.182 6.14482 82.5983 6.02444 82.0086 6.02615ZM90.7077 0.319336H91.9481L95.9544 14.8513L100.27 0.319336H101.663L106.002 14.8513L109.988 0.319336H111.229L106.733 16.4816H105.316L100.977 1.9143L96.6172 16.4816H95.2001L90.7077 0.319336Z" fill="white"/>
<path d="M106.9 16.7121H105.153L100.977 2.69027L96.7803 16.7115H95.0337L90.4121 0.0888672H92.1112L95.9615 14.0355L100.107 0.0888672H101.826L105.992 14.0355L109.818 0.0888672H111.517L106.9 16.7115V16.7121ZM105.479 16.2506H106.566L110.933 0.552941H110.155L106.019 15.6486L101.51 0.549312H100.443L95.9543 15.6486L91.7883 0.549312H91L95.3664 16.2475H96.4538L100.977 1.1342L105.479 16.2506ZM123.998 10.7532C123.998 10.9378 123.974 11.1079 123.974 11.3065H113.95C114.215 13.9146 116.118 15.6232 118.643 15.6232C120.458 15.6232 121.83 14.7443 122.473 13.5216L123.448 14.1205C122.541 15.6906 120.814 16.7292 118.623 16.7292C115.225 16.7292 112.802 14.1879 112.802 10.704C112.802 7.3082 115.147 4.67879 118.535 4.67879C121.922 4.67879 123.998 7.59183 123.998 10.7532ZM113.95 10.1756H122.85C122.605 7.35798 120.702 5.7879 118.535 5.7879C117.372 5.75264 116.243 6.19235 115.387 7.01213C114.531 7.83242 114.015 8.9685 113.95 10.1792V10.1756Z" fill="white"/>
<path d="M118.619 16.9674C115.119 16.9674 112.578 14.3375 112.578 10.7115C112.578 7.086 115.082 4.45608 118.531 4.45608C122.225 4.45608 124.219 7.70252 124.219 10.7576V11.5411H114.202C114.542 13.8589 116.302 15.3973 118.643 15.3973C120.267 15.3973 121.626 14.6564 122.279 13.4161L122.388 13.2066L123.747 14.0466L123.631 14.2452C122.636 15.975 120.808 16.9674 118.619 16.9674ZM118.531 4.91704C115.337 4.91704 113.019 7.35511 113.019 10.7115C113.019 14.0684 115.374 16.5064 118.619 16.5064C120.563 16.5064 122.194 15.6701 123.135 14.2063L122.548 13.8522C121.783 15.1173 120.339 15.8687 118.64 15.8687C115.976 15.8687 114.001 14.0502 113.726 11.3462L113.699 11.091H123.757V10.7685C123.778 7.92185 121.939 4.91341 118.531 4.91341V4.91652V4.91704ZM123.091 10.4102H113.706L113.726 10.1587C113.798 8.89148 114.339 7.70252 115.235 6.84334C116.13 5.98363 117.311 5.5206 118.527 5.55119C121.005 5.55119 122.826 7.39763 123.064 10.1587L123.091 10.4102ZM114.199 9.94978H122.602C122.3 7.5926 120.692 6.02615 118.524 6.02615C117.454 5.9884 116.411 6.37231 115.619 7.09585C114.815 7.82334 114.306 8.84223 114.195 9.94615L114.199 9.94978ZM139.405 10.7079C139.416 11.4966 139.275 12.28 138.99 13.0153C138.709 13.7436 138.288 14.4095 137.751 14.9753C137.222 15.5327 136.586 15.9772 135.882 16.2819C135.184 16.5833 134.432 16.7369 133.673 16.733C132.693 16.7537 131.728 16.4902 130.894 15.9739C130.046 15.4482 129.361 14.6961 128.915 13.8019V16.4816H127.808V0.319336H128.915V7.61385C129.361 6.71937 130.046 5.96709 130.894 5.44126C131.728 4.92525 132.693 4.66184 133.673 4.68267C134.431 4.678 135.181 4.83148 135.882 5.13378C136.586 5.43854 137.222 5.88298 137.751 6.44045C138.288 7.00621 138.709 7.67211 138.99 8.40045C139.274 9.13311 139.415 9.91763 139.405 10.7079ZM138.297 10.7079C138.295 9.74508 138.017 8.80328 137.497 7.99445C136.987 7.19913 136.252 6.57463 135.387 6.20089C134.532 5.83411 133.586 5.73998 132.677 5.93126C131.761 6.12633 130.925 6.59484 130.28 7.27526C129.621 7.96905 129.177 8.83973 129.001 9.78178C128.821 10.7302 128.915 11.7104 129.271 12.6072C129.621 13.4925 130.222 14.2552 131 14.8005C131.764 15.3352 132.673 15.6225 133.605 15.6239C134.226 15.6289 134.841 15.5049 135.412 15.2599C135.988 15.012 136.509 14.6495 136.943 14.1944C137.382 13.7327 137.728 13.1889 137.958 12.5937C138.192 11.993 138.308 11.3527 138.301 10.7079H138.297Z" fill="white"/>
<path d="M133.673 16.9666C132.786 16.9887 131.907 16.7854 131.12 16.3755C130.321 15.9597 129.637 15.3534 129.126 14.61V16.7115H127.577V0.0888672H129.126V6.82287C129.636 6.08151 130.319 5.47676 131.116 5.06146C131.901 4.65255 132.777 4.44908 133.662 4.46983C135.254 4.46983 136.78 5.12887 137.905 6.30228C139.03 7.47568 139.662 9.06754 139.662 10.7273C139.662 12.3866 139.03 13.9784 137.905 15.1518C136.78 16.3252 135.254 16.9843 133.662 16.9843L133.673 16.9666ZM128.691 12.8802L129.109 13.6953C129.535 14.5548 130.192 15.2776 131.005 15.7818C131.806 16.2771 132.733 16.5287 133.673 16.5062C135.146 16.5062 136.56 15.8954 137.601 14.8086C138.643 13.7218 139.228 12.2481 139.228 10.7112C139.228 9.17435 138.643 7.7002 137.601 6.61339C136.56 5.52657 135.146 4.91628 133.673 4.91628C132.733 4.89354 131.806 5.14498 131.005 5.64013C130.192 6.1444 129.535 6.86716 129.109 7.72665L128.691 8.54176V0.54983H128.012V16.2475H128.691V12.8802ZM133.605 15.8612C132.622 15.8647 131.663 15.5661 130.855 15.0056C130.033 14.4339 129.397 13.6317 129.026 12.6992C128.649 11.7549 128.548 10.7219 128.736 9.72191C128.92 8.72858 129.387 7.81027 130.081 7.0785C130.762 6.36076 131.643 5.86687 132.609 5.6619C133.568 5.46123 134.565 5.56208 135.465 5.95072C136.377 6.3467 137.15 7.00723 137.685 7.84746C138.23 8.7021 138.52 9.69616 138.518 10.7112C138.527 11.3863 138.406 12.0567 138.161 12.6858C137.92 13.3088 137.559 13.8781 137.099 14.3616C136.645 14.8379 136.1 15.2171 135.496 15.4764C134.899 15.7331 134.255 15.8628 133.605 15.8575V15.8612ZM133.605 6.02539C132.711 6.0225 131.838 6.29449 131.104 6.80472C130.356 7.32489 129.777 8.05478 129.44 8.90317C129.097 9.76232 129.005 10.7022 129.176 11.6119C129.344 12.5156 129.769 13.351 130.401 14.0168C131.02 14.6695 131.822 15.1186 132.7 15.3048C133.573 15.4873 134.48 15.3955 135.298 15.0419C136.128 14.6818 136.831 14.0808 137.318 13.3163C137.815 12.539 138.078 11.6347 138.077 10.7112C138.085 10.0967 137.974 9.48631 137.752 8.91354C137.533 8.34618 137.204 7.82768 136.785 7.38754C136.372 6.95355 135.876 6.60801 135.327 6.37176C134.783 6.13834 134.196 6.02041 133.605 6.02539ZM46.9476 21.7521L45.1943 27.5252H44.5857L43.0462 22.6097L41.5073 27.5252H40.8997L39.1484 21.7552H39.757L41.2283 26.7775L42.7781 21.7552H43.3515L44.9014 26.7775L46.3726 21.7552L46.9471 21.7515L46.9476 21.7521ZM53.01 24.6615V24.9378H48.001C48.0454 25.539 48.3151 26.1009 48.7557 26.5105C48.9691 26.7087 49.2195 26.8625 49.4924 26.9631C49.7653 27.0637 50.0554 27.109 50.3459 27.0964C50.7284 27.1164 51.1088 27.028 51.4436 26.8413C51.7834 26.6511 52.0652 26.3716 52.2588 26.0329L52.745 26.3342C52.4913 26.7499 52.1329 27.0911 51.7061 27.3235C51.285 27.5519 50.81 27.6609 50.3319 27.6388C49.9499 27.6406 49.5714 27.5648 49.2193 27.416C48.8672 27.2672 48.5487 27.0484 48.283 26.7729C47.7336 26.203 47.425 25.442 47.4219 24.649C47.4137 23.8559 47.7112 23.0904 48.2521 22.5122C48.5135 22.2325 48.8286 22.0088 49.1784 21.8543C49.5281 21.6999 49.9054 21.618 50.2875 21.6136C51.9732 21.6204 53.01 23.081 53.01 24.6615ZM47.9839 24.3742H52.4319C52.31 22.9566 51.3584 22.1809 50.2746 22.1809C49.9865 22.1752 49.7002 22.2269 49.4322 22.3329C49.1641 22.4389 48.9197 22.5971 48.7129 22.7984C48.2855 23.2146 48.0312 23.7778 48.001 24.3747H47.9839V24.3742ZM59.9759 24.6366C59.9809 25.0311 59.9104 25.4229 59.7682 25.7908C59.6275 26.155 59.4168 26.488 59.1483 26.7708C58.8835 27.0496 58.5652 27.2718 58.2127 27.4241C57.8638 27.5747 57.4875 27.6513 57.1077 27.6492C56.6176 27.6591 56.1351 27.527 55.718 27.2686C55.2944 27.0053 54.9521 26.6291 54.7292 26.1818V27.5216H54.1754V19.4405H54.7292V23.0878C54.952 22.6404 55.2944 22.2641 55.718 22.0009C56.1351 21.7426 56.6176 21.6104 57.1077 21.6204C57.4879 21.6181 57.8644 21.6947 58.2137 21.8454C58.564 21.9968 58.8822 22.2187 59.1493 22.4998C59.418 22.7831 59.6286 23.1166 59.7692 23.4813C59.911 23.8496 59.9812 24.2418 59.9759 24.6366ZM59.4221 24.6366C59.4199 24.1557 59.2804 23.6855 59.0202 23.2817C58.7649 22.8849 58.3976 22.5736 57.9653 22.3872C57.5384 22.2046 57.0659 22.158 56.6118 22.254C56.1543 22.3518 55.7371 22.5863 55.4148 22.9265C55.0859 23.2731 54.8642 23.7081 54.7768 24.1787C54.6873 24.6524 54.7343 25.1418 54.9121 25.5896C55.0904 26.0355 55.3905 26.4172 55.7759 26.6852C56.1578 26.9523 56.6118 27.0957 57.0772 27.0964C57.3875 27.0987 57.695 27.0366 57.9802 26.9139C58.2686 26.7896 58.5289 26.6079 58.7453 26.3798C58.9633 26.1517 59.1359 25.8789 59.2521 25.5798C59.3684 25.2792 59.4261 24.959 59.4221 24.6366ZM67.71 26.0117C67.71 26.958 66.9144 27.6492 65.7288 27.6492C64.6207 27.6492 63.8902 27.1068 63.6252 26.3658L64.101 26.0791C64.3014 26.7029 64.8997 27.0959 65.7288 27.0959C66.5032 27.0959 67.1557 26.7418 67.1557 26.0117C67.1557 24.4416 63.8019 25.3418 63.8019 23.2646C63.8019 22.3541 64.553 21.6271 65.6844 21.6271C66.0729 21.6027 66.4593 21.6997 66.7946 21.9055C67.1298 22.1114 67.399 22.4168 67.5669 22.7829L67.1014 23.0592C66.9817 22.7819 66.7806 22.5479 66.5249 22.3883C66.2736 22.2316 65.9794 22.1588 65.6844 22.1804C64.9642 22.1804 64.3557 22.5734 64.3557 23.2646C64.3593 24.8098 67.71 23.8992 67.71 26.0117ZM69.8709 22.3297V26.0832C69.8709 27.1006 70.3907 27.1218 71.5189 27.0186V27.5398C70.0678 27.7705 69.3068 27.4018 69.3068 26.0869V22.3297H68.0902V21.7629H69.3202V20.3095L69.8844 20.1358V21.7521H71.5323V22.3297H69.8709ZM77.2414 21.7521V27.5216H76.6876V26.4265C76.5119 26.8075 76.2289 27.1283 75.8734 27.3495C75.5211 27.5672 75.115 27.6709 74.7064 27.6492C73.388 27.6492 72.5588 26.7387 72.5588 25.3418V21.7521H73.123V25.3428C73.123 26.4058 73.7109 27.1146 74.7503 27.1146C75.7902 27.1146 76.6876 26.3778 76.6876 24.8175V21.7697L77.2414 21.7521ZM84.2346 19.4446V27.5258H83.6808V26.1854C83.4577 26.6326 83.1152 27.0089 82.6915 27.2722C82.2745 27.5306 81.7919 27.6628 81.3019 27.6528C80.9198 27.6515 80.5419 27.5727 80.1909 27.421C79.84 27.2694 79.5232 27.048 79.2597 26.7703C78.7144 26.1965 78.4112 25.4332 78.4135 24.6402C78.4135 23.8412 78.7178 23.0748 79.2597 22.5096C79.5233 22.232 79.8401 22.0107 80.191 21.8592C80.542 21.7076 80.9198 21.6288 81.3019 21.6276C81.7919 21.6175 82.2744 21.7494 82.6915 22.0077C83.1152 22.271 83.4577 22.6473 83.6808 23.0945V19.4446H84.2346ZM83.6808 24.6402C83.6785 24.1595 83.539 23.6895 83.2789 23.2858C83.0236 22.8891 82.6564 22.5777 82.224 22.3914C81.797 22.2087 81.3243 22.1622 80.87 22.2581C80.4126 22.3563 79.9955 22.5907 79.673 22.9306C79.3444 23.2775 79.123 23.7124 79.0355 24.1829C78.9461 24.6565 78.993 25.1459 79.1709 25.5938C79.3491 26.0397 79.6492 26.4213 80.0346 26.6894C80.4165 26.9564 80.8706 27.0999 81.336 27.1006C81.6467 27.1028 81.9545 27.0405 82.24 26.9175C82.5283 26.793 82.7885 26.6114 83.0051 26.3835C83.2236 26.1538 83.3957 25.881 83.5119 25.5813C83.6278 25.2803 83.6852 24.9598 83.6808 24.6371V24.6407V24.6402ZM85.631 19.8947C85.631 19.8035 85.6568 19.7143 85.7054 19.6386C85.7533 19.5636 85.8224 19.5045 85.9038 19.469C85.9842 19.4343 86.0733 19.4252 86.159 19.4431C86.2453 19.4612 86.3242 19.5052 86.3853 19.5691C86.447 19.635 86.4888 19.7172 86.5057 19.8061C86.5227 19.895 86.514 19.9869 86.4808 20.071C86.448 20.1545 86.3914 20.2265 86.3181 20.2779C86.2338 20.3371 86.1312 20.3639 86.0288 20.3534C85.9265 20.3429 85.8313 20.2959 85.7607 20.2209C85.677 20.1331 85.6305 20.0162 85.631 19.8947ZM85.7974 21.7521H86.3517V27.5221H85.7974V21.7521ZM87.5342 24.6366C87.5299 24.0394 87.6966 23.4536 88.0146 22.9488C88.3267 22.4528 88.7791 22.0616 89.3139 21.8252C89.8419 21.5931 90.4283 21.5299 90.9934 21.6442C91.5621 21.7611 92.0823 22.0482 92.4853 22.4676C92.8962 22.8953 93.1746 23.4335 93.2866 24.0169C93.4009 24.6045 93.3455 25.2126 93.127 25.7695C92.9124 26.3195 92.5414 26.7939 92.0602 27.1338C91.5873 27.467 91.0241 27.6469 90.4463 27.6492C90.0635 27.6552 89.6835 27.5816 89.3304 27.4329C88.9739 27.2826 88.6514 27.0612 88.3825 26.7822C88.1094 26.4992 87.8947 26.165 87.7506 25.7986C87.6047 25.429 87.5312 25.0346 87.5342 24.6371V24.6366ZM92.7808 24.6366C92.7778 24.1564 92.6378 23.6871 92.3774 23.2843C92.1219 22.8882 91.7544 22.5776 91.3219 22.3924C90.8951 22.2106 90.423 22.165 89.9695 22.2618C89.5128 22.3606 89.0967 22.5958 88.7756 22.9364C88.4478 23.2835 88.2274 23.7187 88.1412 24.1891C88.0531 24.6624 88.1011 25.151 88.2797 25.5979C88.4584 26.0428 88.7596 26.4224 89.1455 26.6894C89.5275 26.9551 89.9815 27.0972 90.4463 27.0964C90.7542 27.0964 91.059 27.0326 91.3431 26.9087C91.6273 26.7843 91.8845 26.6028 92.1005 26.3736C92.3178 26.1429 92.4878 25.8716 92.6011 25.5751C92.7157 25.2769 92.7721 24.9581 92.7669 24.6366H92.7808Z" fill="white"/>
</g>
<defs>
<clipPath id="clip0_101_357">
<rect width="140" height="28" fill="white"/>
</clipPath>
</defs>
</svg>
