<svg width="32" height="32" viewBox="0 0 32 32" fill="none" xmlns="http://www.w3.org/2000/svg">
<mask id="mask0_101_43" style="mask-type:luminance" maskUnits="userSpaceOnUse" x="0" y="0" width="32" height="32">
<path d="M24.8821 0.571289H7.11801C3.50249 0.571289 0.571533 3.50225 0.571533 7.11776V24.8818C0.571533 28.4974 3.50249 31.4283 7.11801 31.4283H24.8821C28.4976 31.4283 31.4286 28.4974 31.4286 24.8818V7.11776C31.4286 3.50225 28.4976 0.571289 24.8821 0.571289Z" fill="white"/>
</mask>
<g mask="url(#mask0_101_43)">
<path d="M25.8551 9.15008C26.9318 9.15008 27.8046 8.27723 27.8046 7.20053C27.8046 6.12382 26.9318 5.25098 25.8551 5.25098C24.7784 5.25098 23.9055 6.12382 23.9055 7.20053C23.9055 8.27723 24.7784 9.15008 25.8551 9.15008Z" fill="#F41240"/>
<path d="M20.0618 8.93457H6.36035V24.1659H10.1739V19.2106H17.4813L20.8153 24.1659H25.0856L21.409 19.1878C22.5508 19.0051 23.3729 18.5712 23.8753 17.8862C24.3777 17.2011 24.6289 16.1049 24.6289 14.6435V13.5017C24.6289 12.6339 24.5375 11.9489 24.3777 11.4236C24.2178 10.8985 23.9438 10.4417 23.5556 10.0307C23.1446 9.64248 22.6879 9.36844 22.1398 9.18577C21.5917 9.02588 20.9066 8.93457 20.0618 8.93457ZM19.4452 15.8537H10.1739V12.2914H19.4452C19.9704 12.2914 20.3358 12.3827 20.5185 12.5426C20.7011 12.7025 20.8153 12.9993 20.8153 13.4332V14.712C20.8153 15.1687 20.7011 15.4656 20.5185 15.6254C20.3358 15.7853 19.9704 15.8537 19.4452 15.8537Z" fill="white"/>
</g>
</svg>
