<svg width="56" height="56" viewBox="0 0 56 56" fill="none" xmlns="http://www.w3.org/2000/svg">
<rect width="56" height="56" rx="28" fill="#2E7B6A"/>
<g clip-path="url(#clip0_101_309)">
<path d="M40.7769 21.6151L35.3399 16.229C35.0425 15.9315 34.5602 15.9315 34.2627 16.229L32.6469 17.8448L39.1103 24.3081L40.7769 22.6923C41.0743 22.3948 41.0743 21.9125 40.7769 21.6151Z" fill="white"/>
<path d="M25.9773 22.3588C25.9811 22.3549 25.9849 22.3511 25.9884 22.3477C25.9848 22.3512 25.9811 22.3549 25.9773 22.3588Z" fill="white"/>
<path d="M25.9736 22.3627C25.9748 22.3616 25.9759 22.3605 25.977 22.3594C25.9758 22.3605 25.9748 22.3616 25.9736 22.3627Z" fill="white"/>
<path d="M25.895 22.442C25.9261 22.4108 25.9523 22.3847 25.9737 22.3633C25.9504 22.3866 25.9236 22.4135 25.895 22.442Z" fill="white"/>
<path d="M26.0492 22.2874C26.0515 22.2851 26.0533 22.2833 26.0544 22.2822C26.0533 22.2834 26.0516 22.2851 26.0492 22.2874Z" fill="white"/>
<path d="M26.0548 22.2826C26.0565 22.2809 26.0566 22.2808 26.0548 22.2826V22.2826Z" fill="white"/>
<path d="M25.8049 22.5327C25.8166 22.5211 25.8279 22.5097 25.8386 22.499C25.8274 22.5102 25.8162 22.5215 25.8049 22.5327Z" fill="white"/>
<path d="M32.216 19.5684C30.6171 19.8211 28.7421 19.5951 27.0776 21.2596C25.9289 22.4083 25.5915 22.7457 25.5746 22.7625C25.5832 22.754 25.6654 22.6717 25.7596 22.5775C25.5021 22.8351 25.0494 23.2878 24.2983 24.0389C23.8566 24.4805 23.8566 25.2131 24.2983 25.6547C24.7374 26.0938 25.4715 26.0974 25.9142 25.6547L28.3379 23.2309C29.5278 22.041 31.457 22.041 32.6468 23.2309L37.4689 28.053C38.1313 26.7993 37.8081 26.4885 38.1303 25.4828L32.216 19.5684Z" fill="white"/>
<path d="M26.0154 22.3213C26.0122 22.3244 26.0088 22.3279 26.0052 22.3314C26.0088 22.3279 26.0122 22.3245 26.0154 22.3213Z" fill="white"/>
<path d="M25.8655 22.4716C25.8746 22.4625 25.8834 22.4537 25.8917 22.4453C25.8831 22.4539 25.8744 22.4627 25.8655 22.4716Z" fill="white"/>
<path d="M26.0041 22.332C25.9994 22.3367 25.9945 22.3416 25.9894 22.3467C25.9946 22.3414 25.9995 22.3366 26.0041 22.332Z" fill="white"/>
<path d="M21.8746 15.6909C21.5771 15.3934 21.0948 15.3934 20.7974 15.6909L15.2231 21.077C14.9256 21.3745 14.9256 21.8567 15.2231 22.1543L16.8897 23.7701L23.4904 17.3067L21.8746 15.6909Z" fill="white"/>
<path d="M21.0667 27.8093C20.6205 27.3631 19.897 27.3631 19.4508 27.8093L16.7578 30.5023C16.3115 30.9486 16.3115 31.672 16.7578 32.1182C17.204 32.5644 17.9274 32.5645 18.3736 32.1182L21.0667 29.4251C21.5129 28.9789 21.5129 28.2555 21.0667 27.8093Z" fill="white"/>
<path d="M23.7598 30.5026C23.3136 30.0564 22.5902 30.0564 22.1439 30.5026L19.4509 33.1957C19.0047 33.6419 19.0047 34.3653 19.4509 34.8116C19.8971 35.2578 20.6205 35.2578 21.0667 34.8116L23.7598 32.1185C24.206 31.6723 24.206 30.9489 23.7598 30.5026Z" fill="white"/>
<path d="M26.4528 33.196C26.0066 32.7498 25.2832 32.7498 24.837 33.196L22.1439 35.8891C21.6978 36.3353 21.6978 37.0587 22.1439 37.5049C22.5901 37.9511 23.3136 37.9511 23.7598 37.5049L26.4528 34.8118C26.8991 34.3656 26.8991 33.6422 26.4528 33.196Z" fill="white"/>
<path d="M29.1458 35.8883C28.6997 35.4422 27.9762 35.4422 27.53 35.8883L24.8369 38.5814C24.3908 39.0276 24.3908 39.7511 24.8369 40.1972C25.2831 40.6434 26.0065 40.6434 26.4528 40.1972L29.1458 37.5042C29.5921 37.0579 29.5921 36.3345 29.1458 35.8883Z" fill="white"/>
<path d="M37.2252 29.9637L31.5697 24.3082C30.9748 23.7133 30.0102 23.7133 29.4152 24.3082L26.9915 26.732C25.9429 27.7805 24.2217 27.7326 23.2212 26.732C22.2205 25.7313 22.1726 24.0101 23.2212 22.9616L26.0004 20.1824C26.679 19.5038 27.4653 19.0191 28.3595 18.6851C26.8063 17.9539 25.712 18.2756 24.7615 18.1895L20.2587 22.6923L18.6428 24.3081C17.6998 25.2512 17.2601 26.5223 17.3244 27.781L18.2482 26.8572C19.2614 25.8441 20.9283 25.6637 22.0083 26.6054C22.6275 27.1454 22.9291 27.8985 22.9203 28.6485C23.6135 28.6405 24.3092 28.8974 24.8369 29.425C25.3647 29.9527 25.6215 30.6484 25.6134 31.3416C26.3066 31.3335 27.0023 31.5904 27.53 32.1181C28.0578 32.6458 28.3146 33.3415 28.3065 34.0347C28.9997 34.0266 29.6953 34.2835 30.2232 34.8112C30.8917 35.4798 31.1241 36.4168 30.9325 37.2779C31.2585 37.306 31.5929 37.2117 31.8389 36.9657C32.2807 36.5239 32.2806 35.7914 31.8389 35.3498L27.7994 31.3102C27.4977 31.0085 27.4977 30.5345 27.7994 30.233C28.101 29.9313 28.575 29.9313 28.8766 30.233L32.9162 34.2725C33.3578 34.7142 34.0905 34.7142 34.5321 34.2725C34.9737 33.8308 34.9737 33.0983 34.5321 32.6568L30.4925 28.6171C30.1908 28.3155 30.1908 27.8414 30.4925 27.5399C30.7941 27.2382 31.268 27.2382 31.5697 27.5399L35.6093 31.5794C36.0509 32.0211 36.7835 32.0211 37.2252 31.5794C37.6668 31.1377 37.6668 30.4052 37.2252 29.9637Z" fill="white"/>
</g>
<defs>
<clipPath id="clip0_101_309">
<rect width="26" height="26" fill="white" transform="translate(15 15)"/>
</clipPath>
</defs>
</svg>
