<svg width="56" height="56" viewBox="0 0 56 56" fill="none" xmlns="http://www.w3.org/2000/svg">
<rect width="56" height="56" rx="28" fill="#2E7B6A"/>
<g clip-path="url(#clip0_101_226)">
<path d="M29.3424 21.091C30.1491 20.5268 30.6924 19.4814 30.6924 18.2867C30.6924 16.6694 30.3691 15.0161 27.9717 15.0161C25.5742 15.0161 25.251 16.6694 25.251 18.2867C25.251 19.4814 25.7942 20.5268 26.6009 21.091C24.8161 21.6332 23.5217 23.2032 23.5217 25.0515C23.5217 26.0043 24.0011 26.681 24.9465 27.0625C25.6385 27.3419 26.5998 27.4719 27.9716 27.4719C29.3435 27.4719 30.3047 27.3419 30.9968 27.0625C31.9421 26.681 32.4215 26.0044 32.4215 25.0515C32.4216 23.2032 31.1273 21.6332 29.3424 21.091Z" fill="white"/>
<path d="M20.8208 33.3215C21.6273 32.7572 22.1706 31.7118 22.1706 30.5172C22.1706 28.8999 21.8473 27.2466 19.4498 27.2466C17.0523 27.2466 16.729 28.8999 16.729 30.5172C16.729 31.7118 17.2723 32.7572 18.0789 33.3215C16.2943 33.8636 15 35.4336 15 37.2819C15 38.2347 15.4794 38.9114 16.4247 39.2929C17.1167 39.5723 18.078 39.7023 19.4499 39.7023C20.8217 39.7023 21.783 39.5723 22.475 39.2929C23.4204 38.9113 23.8998 38.2347 23.8998 37.2819C23.8998 35.4336 22.6055 33.8636 20.8208 33.3215Z" fill="white"/>
<path d="M37.8646 33.3215C38.6712 32.7572 39.2144 31.7118 39.2144 30.5172C39.2144 28.8999 38.8912 27.2466 36.4936 27.2466C34.0961 27.2466 33.7729 28.8999 33.7729 30.5172C33.7729 31.7118 34.3161 32.7572 35.1227 33.3215C33.338 33.8636 32.0437 35.4336 32.0437 37.2819C32.0437 38.2347 32.5231 38.9114 33.4684 39.2929C34.1604 39.5723 35.1217 39.7023 36.4936 39.7023C37.8654 39.7023 38.8267 39.5723 39.5187 39.2929C40.4641 38.9114 40.9435 38.2348 40.9435 37.2819C40.9435 35.4336 39.6492 33.8636 37.8646 33.3215Z" fill="white"/>
<path d="M30.9781 39.4729C30.9468 39.3937 30.8857 39.3303 30.8082 39.2966C30.7308 39.2629 30.6433 39.2618 30.565 39.2935C29.8816 39.5699 29.0334 39.7042 27.9718 39.7042C26.9103 39.7042 26.0621 39.5699 25.3786 39.2935C25.3004 39.2618 25.2129 39.263 25.1354 39.2966C25.0579 39.3303 24.9968 39.3937 24.9656 39.4729L24.7298 40.0705C24.6647 40.2356 24.7441 40.4228 24.907 40.4887C25.7431 40.8269 26.7457 40.9913 27.9718 40.9913C29.198 40.9913 30.2005 40.8269 31.0367 40.4887C31.1996 40.4228 31.279 40.2355 31.2139 40.0705L30.9781 39.4729Z" fill="white"/>
<path d="M18.6002 25.6131L19.1844 25.8668C19.2253 25.8845 19.2678 25.8929 19.3097 25.8929C19.4329 25.8929 19.5502 25.8199 19.6019 25.6979C19.892 25.0133 20.398 24.3111 21.1486 23.5512C21.8994 22.7913 22.593 22.2791 23.2691 21.9853C23.3466 21.9517 23.4077 21.8883 23.439 21.809C23.4702 21.7298 23.4692 21.6412 23.4359 21.5627L23.1852 20.9713C23.116 20.8079 22.929 20.7325 22.7678 20.8025C21.9403 21.1619 21.1166 21.7633 20.2497 22.641C19.3826 23.5188 18.7886 24.3527 18.4336 25.1905C18.3643 25.3538 18.439 25.543 18.6002 25.6131Z" fill="white"/>
<path d="M32.6744 21.9853C33.3506 22.279 34.0442 22.7912 34.7949 23.5511C35.5455 24.311 36.0514 25.0133 36.3416 25.6979C36.3933 25.8198 36.5105 25.8929 36.6338 25.8929C36.6756 25.8929 36.7182 25.8844 36.759 25.8667L37.3432 25.6131C37.5045 25.543 37.5792 25.3538 37.5099 25.1905C37.155 24.3527 36.5609 23.5187 35.6939 22.641C34.8268 21.7633 34.0032 21.1619 33.1757 20.8025C33.0145 20.7325 32.8276 20.8079 32.7583 20.9713L32.5077 21.5627C32.4744 21.6412 32.4734 21.7297 32.5046 21.809C32.5359 21.8882 32.5969 21.9516 32.6744 21.9853Z" fill="white"/>
</g>
<defs>
<clipPath id="clip0_101_226">
<rect width="26" height="26" fill="white" transform="translate(15 15)"/>
</clipPath>
</defs>
</svg>
