<svg width="56" height="56" viewBox="0 0 56 56" fill="none" xmlns="http://www.w3.org/2000/svg">
<rect width="56" height="56" rx="28" fill="#2E7B6A"/>
<path d="M31.1981 27.9998C31.1981 29.766 29.7663 31.1979 28.0001 31.1979C26.2338 31.1979 24.802 29.7661 24.802 27.9998C24.802 26.2335 26.2338 24.8018 28.0001 24.8018C29.7663 24.8018 31.1981 26.2335 31.1981 27.9998Z" fill="white"/>
<path d="M29.1989 22.004C29.1989 22.6663 28.6622 23.2033 27.9998 23.2033C27.3375 23.2033 26.8005 22.6663 26.8005 22.004C26.8005 21.3416 27.3375 20.8047 27.9998 20.8047C28.6622 20.8047 29.1989 21.3416 29.1989 22.004Z" fill="white"/>
<path d="M35.1957 31.9973V16.8066H20.8048V31.9973H16.8074V33.5963H18.4064V39.1929H37.5946V33.5963H39.1936V31.9973H35.1957ZM31.1983 36.7944H24.8024V35.1954H31.1983V36.7944ZM33.197 31.9973H22.8036V20.4045C23.6831 20.4045 24.4026 19.685 24.4026 18.8055H31.5983C31.5983 19.685 32.3177 20.4045 33.1973 20.4045L33.197 31.9973Z" fill="white"/>
</svg>
