<svg width="56" height="56" viewBox="0 0 56 56" fill="none" xmlns="http://www.w3.org/2000/svg">
<rect width="56" height="56" rx="28" fill="#2E7B6A"/>
<path fill-rule="evenodd" clip-rule="evenodd" d="M18.4531 38.6133C18.4538 39.246 18.7054 39.8526 19.1527 40.3C19.6001 40.7474 20.2066 40.9992 20.8393 41H35.1611C35.7937 40.9991 36.4002 40.7473 36.8474 40.2999C37.2947 39.8524 37.5462 39.2459 37.5469 38.6133V22.2501C37.5469 22.1699 37.531 22.0906 37.5002 22.0166C37.4693 21.9426 37.4241 21.8755 37.3672 21.8191L30.7288 15.1783C30.6141 15.0644 30.4592 15.0003 30.2975 15H20.8391C20.2064 15.0009 19.5999 15.2527 19.1527 15.7001C18.7054 16.1475 18.4538 16.7541 18.4531 17.3867V38.6133ZM35.4654 21.6408H32.2021C31.8095 21.6403 31.4331 21.484 31.1555 21.2063C30.8779 20.9286 30.7219 20.5521 30.7216 20.1595V16.8963L35.4651 21.6408L35.4654 21.6408ZM22.0681 24.1102C21.9067 24.1099 21.7519 24.0456 21.6378 23.9314C21.5237 23.8171 21.4596 23.6623 21.4596 23.5008V18.8086C21.4596 18.6471 21.5237 18.4922 21.6378 18.378C21.7519 18.2637 21.9067 18.1994 22.0681 18.1992H26.7614C26.9229 18.1994 27.0776 18.2638 27.1917 18.378C27.3058 18.4923 27.3699 18.6471 27.3699 18.8086V23.5008C27.3699 23.6622 27.3058 23.8171 27.1917 23.9314C27.0776 24.0456 26.9229 24.1099 26.7614 24.1102H22.0681ZM22.679 19.418H26.1505V22.8914H22.679V19.418ZM21.0523 27.4617C21.0524 27.3816 21.0682 27.3022 21.099 27.2282C21.1297 27.1542 21.1748 27.087 21.2315 27.0304C21.2883 26.9738 21.3556 26.929 21.4297 26.8984C21.5037 26.8679 21.5831 26.8522 21.6633 26.8523H34.3368C34.4984 26.8523 34.6534 26.9165 34.7677 27.0308C34.882 27.1451 34.9462 27.3001 34.9462 27.4617C34.9462 27.6233 34.882 27.7783 34.7677 27.8926C34.6534 28.0069 34.4984 28.0711 34.3368 28.0711H21.6633C21.5831 28.0712 21.5038 28.0556 21.4297 28.025C21.3556 27.9944 21.2883 27.9496 21.2315 27.893C21.1748 27.8364 21.1298 27.7692 21.099 27.6952C21.0683 27.6212 21.0524 27.5419 21.0523 27.4617ZM21.0523 30.7523C21.0524 30.6722 21.0682 30.5929 21.0989 30.5188C21.1297 30.4448 21.1747 30.3776 21.2315 30.321C21.2882 30.2644 21.3555 30.2195 21.4296 30.189C21.5037 30.1585 21.5831 30.1428 21.6633 30.143H34.3368C34.4984 30.143 34.6534 30.2072 34.7677 30.3215C34.882 30.4357 34.9462 30.5907 34.9462 30.7523C34.9462 30.914 34.882 31.069 34.7677 31.1832C34.6534 31.2975 34.4984 31.3617 34.3368 31.3617H21.6633C21.5831 31.3619 21.5037 31.3462 21.4296 31.3157C21.3556 31.2851 21.2882 31.2403 21.2315 31.1837C21.1747 31.1271 21.1297 31.0599 21.099 30.9858C21.0682 30.9118 21.0524 30.8325 21.0523 30.7523ZM21.0523 34.043C21.0524 33.9628 21.0682 33.8835 21.0989 33.8095C21.1297 33.7354 21.1747 33.6682 21.2315 33.6116C21.2882 33.555 21.3555 33.5102 21.4296 33.4796C21.5037 33.4491 21.5831 33.4334 21.6633 33.4336H34.3368C34.4984 33.4336 34.6534 33.4978 34.7677 33.6121C34.882 33.7264 34.9462 33.8814 34.9462 34.043C34.9462 34.2046 34.882 34.3596 34.7677 34.4739C34.6534 34.5881 34.4984 34.6523 34.3368 34.6523H21.6633C21.5831 34.6525 21.5037 34.6369 21.4296 34.6063C21.3556 34.5758 21.2882 34.5309 21.2315 34.4743C21.1747 34.4177 21.1297 34.3505 21.099 34.2765C21.0682 34.2025 21.0524 34.1231 21.0523 34.043ZM21.0523 37.3336C21.0524 37.2535 21.0682 37.1741 21.099 37.1001C21.1297 37.0261 21.1747 36.9589 21.2315 36.9023C21.2882 36.8457 21.3556 36.8008 21.4296 36.7703C21.5037 36.7397 21.5831 36.7241 21.6633 36.7242H34.3368C34.4984 36.7242 34.6534 36.7884 34.7677 36.9027C34.882 37.017 34.9462 37.172 34.9462 37.3336C34.9462 37.4952 34.882 37.6502 34.7677 37.7645C34.6534 37.8788 34.4984 37.943 34.3368 37.943H21.6633C21.5831 37.9431 21.5037 37.9275 21.4296 37.8969C21.3555 37.8664 21.2882 37.8215 21.2315 37.7649C21.1747 37.7083 21.1297 37.6411 21.0989 37.5671C21.0682 37.4931 21.0524 37.4137 21.0523 37.3336Z" fill="white"/>
</svg>
