<svg width="56" height="56" viewBox="0 0 56 56" fill="none" xmlns="http://www.w3.org/2000/svg">
<rect width="56" height="56" rx="28" fill="#2E7B6A"/>
<g clip-path="url(#clip0_101_141)">
<path d="M39.5391 25.5072C39.4369 25.5072 39.3397 25.5255 39.2409 25.5378L36.3862 19.7542C36.8126 19.3057 37.0781 18.6989 37.0781 18.0285C37.0781 16.6539 35.9742 15.5356 34.6172 15.5356C33.5491 15.5356 32.6471 16.2324 32.3074 17.1976H23.6926C23.3529 16.2324 22.4509 15.5356 21.3828 15.5356C20.0258 15.5356 18.9219 16.6539 18.9219 18.0285C18.9219 18.6989 19.1874 19.3057 19.6138 19.7542L16.7591 25.5378C16.6603 25.5255 16.5631 25.5072 16.4609 25.5072C15.1039 25.5072 14 26.6255 14 28.0001C14 29.3748 15.1039 30.493 16.4609 30.493C16.5631 30.493 16.6603 30.4748 16.7591 30.4625L19.6138 36.2461C19.1874 36.6945 18.9219 37.3014 18.9219 37.9717C18.9219 39.3464 20.0258 40.4646 21.3828 40.4646C22.4509 40.4646 23.3529 39.7678 23.6926 38.8027H32.3074C32.6471 39.7678 33.5491 40.4646 34.6172 40.4646C35.9742 40.4646 37.0781 39.3464 37.0781 37.9717C37.0781 37.3014 36.8126 36.6945 36.3862 36.2461L39.2409 30.4625C39.3397 30.4748 39.4369 30.493 39.5391 30.493C40.8961 30.493 42 29.3748 42 28.0001C42 26.6255 40.8961 25.5072 39.5391 25.5072ZM32.3074 37.1408H23.6926C23.3529 36.1756 22.4509 35.4788 21.3828 35.4788C21.2807 35.4788 21.1834 35.4971 21.0846 35.5094L18.2299 29.7258C18.6563 29.2773 18.9219 28.6705 18.9219 28.0001C18.9219 27.3298 18.6563 26.7229 18.2299 26.2745L21.0846 20.4909C21.1834 20.5032 21.2807 20.5214 21.3828 20.5214C22.4509 20.5214 23.3529 19.8246 23.6926 18.8595H32.3074C32.6471 19.8246 33.5491 20.5214 34.6172 20.5214C34.7193 20.5214 34.8166 20.5032 34.9154 20.4909L37.7701 26.2745C37.3437 26.7229 37.0781 27.3298 37.0781 28.0001C37.0781 28.6705 37.3437 29.2773 37.7701 29.7258L34.9154 35.5094C34.8166 35.4971 34.7193 35.4788 34.6172 35.4788C33.5491 35.4788 32.6471 36.1756 32.3074 37.1408Z" fill="white"/>
<path d="M28 35.4788C28.9399 35.4788 30.3164 32.9043 30.4828 28.8311H25.5172C25.6837 32.9043 27.0602 35.4788 28 35.4788Z" fill="white"/>
<path d="M35.3548 27.1691C35.047 24.3858 33.262 22.0656 30.7849 21.064C31.5867 22.6527 32.0486 24.9045 32.1395 27.1691H35.3548Z" fill="white"/>
<path d="M28 20.5215C27.0601 20.5215 25.6836 23.0959 25.5172 27.1692H30.4828C30.3163 23.0959 28.9398 20.5215 28 20.5215Z" fill="white"/>
<path d="M20.6451 28.8311C20.953 31.6143 22.738 33.9346 25.215 34.9362C24.4133 33.3475 23.9513 31.0957 23.8605 28.8311H20.6451Z" fill="white"/>
<path d="M20.6451 27.1691H23.8605C23.9513 24.9046 24.4132 22.6527 25.215 21.064C22.738 22.0656 20.953 24.3858 20.6451 27.1691Z" fill="white"/>
<path d="M32.1395 28.8311C32.0486 31.0956 31.5867 33.3475 30.7849 34.9362C33.262 33.9346 35.047 31.6144 35.3548 28.8311H32.1395Z" fill="white"/>
</g>
<defs>
<clipPath id="clip0_101_141">
<rect width="28" height="26" fill="white" transform="translate(14 15)"/>
</clipPath>
</defs>
</svg>
