<svg width="32" height="32" viewBox="0 0 32 32" fill="none" xmlns="http://www.w3.org/2000/svg">
<mask id="mask0_101_51" style="mask-type:luminance" maskUnits="userSpaceOnUse" x="0" y="0" width="32" height="32">
<path d="M24.8821 0.571289H7.11801C3.50249 0.571289 0.571533 3.50225 0.571533 7.11776V24.8818C0.571533 28.4974 3.50249 31.4283 7.11801 31.4283H24.8821C28.4976 31.4283 31.4286 28.4974 31.4286 24.8818V7.11776C31.4286 3.50225 28.4976 0.571289 24.8821 0.571289Z" fill="white"/>
</mask>
<g mask="url(#mask0_101_51)">
<g clip-path="url(#clip0_101_51)">
<path d="M22.4846 9.58456C22.4846 9.58456 24.0262 9.01919 23.8973 10.3921C23.8548 10.9575 23.4695 12.9364 23.1695 15.0766L22.1418 21.4169C22.1418 21.4169 22.056 22.3457 21.285 22.5073C20.5144 22.6685 19.3581 21.9419 19.1438 21.7803C18.9724 21.659 15.9319 19.8417 14.8613 18.9535C14.5613 18.711 14.2185 18.2266 14.9042 17.6612L19.4005 13.6227C19.9144 13.1383 20.4283 12.0076 18.287 13.3805L12.2911 17.2168C12.2911 17.2168 11.6058 17.6209 10.3213 17.2574L7.5372 16.4495C7.5372 16.4495 6.50944 15.8438 8.26537 15.2382C12.5482 13.3402 17.816 11.4019 22.4838 9.58456H22.4846Z" fill="white"/>
</g>
</g>
<defs>
<clipPath id="clip0_101_51">
<rect width="18" height="13.7143" fill="white" transform="translate(6.57153 9.14258)"/>
</clipPath>
</defs>
</svg>
