<svg width="36" height="36" viewBox="0 0 36 36" fill="none" xmlns="http://www.w3.org/2000/svg">
<mask id="mask0_101_59" style="mask-type:luminance" maskUnits="userSpaceOnUse" x="0" y="0" width="36" height="36">
<path d="M28.3623 0H7.63755C3.41945 0 0 3.41945 0 7.63755V28.3623C0 32.5804 3.41945 35.9999 7.63755 35.9999H28.3623C32.5804 35.9999 35.9999 32.5804 35.9999 28.3623V7.63755C35.9999 3.41945 32.5804 0 28.3623 0Z" fill="white"/>
</mask>
<g mask="url(#mask0_101_59)">
<path fill-rule="evenodd" clip-rule="evenodd" d="M27.8015 12.8333C27.9541 12.3633 27.8015 12.0217 27.1265 12.0217H24.8821C24.316 12.0217 24.0545 12.3208 23.9019 12.6408C23.9019 12.6408 22.7474 15.3742 21.1351 17.1463C20.6122 17.6588 20.3727 17.8296 20.0894 17.8296C19.9368 17.8296 19.7405 17.6588 19.7405 17.1892V12.8113C19.7405 12.2563 19.5665 12 19.0869 12H15.5572C15.2084 12 14.9907 12.2563 14.9907 12.5125C14.9907 13.0463 15.7968 13.1746 15.8838 14.6692V17.9167C15.8838 18.6213 15.7552 18.75 15.4698 18.75C14.7074 18.75 12.8555 15.9954 11.7446 12.8567C11.5286 12.235 11.3092 12 10.7426 12H8.47679C7.82321 12 7.71436 12.2988 7.71436 12.6192C7.71436 13.1958 8.47679 16.0996 11.2655 19.9429C13.1174 22.5679 15.7535 23.9788 18.1282 23.9788C19.5665 23.9788 19.7405 23.6583 19.7405 23.1246V21.1388C19.7405 20.4983 19.8712 20.3917 20.3289 20.3917C20.6555 20.3917 21.2439 20.5621 22.5729 21.8221C24.0978 23.3167 24.3592 24 25.2091 24H27.4531C28.1067 24 28.4118 23.6796 28.2374 23.0604C28.0415 22.4413 27.3005 21.5446 26.3418 20.4771C25.819 19.8796 25.0347 19.2175 24.7951 18.8971C24.4685 18.47 24.5555 18.2992 24.7951 17.915C24.7732 17.915 27.5187 14.1142 27.8015 12.8317" fill="white"/>
</g>
</svg>
